<?xml version="1.0" encoding="UTF-8"?><!DOCTYPE svg PUBLIC "-//W3C//DTD SVG 1.1//EN" "http://www.w3.org/Graphics/SVG/1.1/DTD/svg11.dtd"><svg xmlns="http://www.w3.org/2000/svg" xmlns:xlink="http://www.w3.org/1999/xlink"><defs/><symbol id="close" viewBox="0 0 15 17">
<path d="M13.0002 14.8743L2.00049 1.88629" stroke="#B0B3BC" stroke-width="2.5" stroke-linecap="round"/>
<path d="M1.99978 14.8747L12.9995 1.88665" stroke="#B0B3BC" stroke-width="2.5" stroke-linecap="round"/>
</symbol><symbol id="minus" viewBox="0 0 32 32">
<circle cx="15.8824" cy="15.6471" r="14.6471" stroke="#172853" stroke-width="2"/>
<path d="M22.402 15.647H9.36279" stroke="#172853" stroke-width="2" stroke-linecap="round"/>
</symbol><symbol id="plus" viewBox="0 0 32 32">
<circle cx="15.6471" cy="15.6471" r="14.6471" stroke="#172853" stroke-width="2"/>
<path d="M22.1667 15.6471H9.12744" stroke="#172853" stroke-width="2" stroke-linecap="round"/>
<path d="M15.6471 22.1667V9.12747" stroke="#172853" stroke-width="2" stroke-linecap="round"/>
</symbol><symbol id="question" viewBox="0 0 10 17">
<path d="M3.06869 11.8612V10.8336C3.06869 10.2627 3.19458 9.74171 3.44636 9.27072C3.69813 8.79972 4.00174 8.40723 4.35719 8.09323C4.71263 7.77924 5.06808 7.47951 5.42353 7.19406C5.77897 6.89434 6.08258 6.56607 6.33436 6.20925C6.58613 5.83817 6.71202 5.44567 6.71202 5.03177C6.71202 4.53223 6.50468 4.11119 6.08999 3.76865C5.6753 3.4261 5.16435 3.25483 4.55713 3.25483C3.74256 3.25483 2.95762 3.55456 2.20229 4.15401L0.625 2.29144C1.75058 1.26381 3.14275 0.75 4.80149 0.75C6.11961 0.75 7.26 1.12109 8.22267 1.86326C9.18533 2.59116 9.66667 3.56169 9.66667 4.77486C9.66667 5.4314 9.53337 6.02371 9.26679 6.5518C9.00021 7.07988 8.67438 7.51519 8.28931 7.85773C7.90424 8.20028 7.51918 8.52854 7.13411 8.84254C6.76385 9.14226 6.44543 9.47767 6.17885 9.84876C5.91226 10.2198 5.77897 10.6123 5.77897 11.0262V11.8612H3.06869ZM3.04648 16.25V13.7023H5.77897V16.25H3.04648Z" fill="#B0B3BC"/>
</symbol></svg>